<svg width="600" height="400" viewBox="0 0 600 400" fill="none" xmlns="http://www.w3.org/2000/svg">
  <rect width="600" height="400" rx="24" fill="#0D172A"/>
  <rect x="110" y="92" width="380" height="216" rx="22" fill="#13233D" stroke="#2A3C5D" stroke-width="4"/>
  <rect x="152" y="130" width="296" height="18" rx="9" fill="#2DD36F" fill-opacity="0.35"/>
  <rect x="152" y="168" width="220" height="16" rx="8" fill="#7C94B8" fill-opacity="0.45"/>
  <rect x="152" y="198" width="174" height="16" rx="8" fill="#7C94B8" fill-opacity="0.32"/>
  <rect x="152" y="244" width="128" height="34" rx="12" fill="#2DD36F"/>
  <path d="M392 176C392 151.699 411.699 132 436 132H448C472.301 132 492 151.699 492 176V224C492 248.301 472.301 268 448 268H436C411.699 268 392 248.301 392 224V176Z" fill="#1B3152"/>
  <path d="M406 182C406 170.954 414.954 162 426 162H458C469.046 162 478 170.954 478 182V218C478 229.046 469.046 238 458 238H426C414.954 238 406 229.046 406 218V182Z" fill="#2DD36F" fill-opacity="0.23"/>
  <path d="M248 56L272 86H224L248 56Z" fill="#2DD36F" fill-opacity="0.7"/>
  <path d="M318 336L342 306H294L318 336Z" fill="#2DD36F" fill-opacity="0.25"/>
</svg>
